<svg width="252" height="100" viewBox="0 0 252 100" fill="none" xmlns="http://www.w3.org/2000/svg">
<path d="M29.8538 32.0715C42.5714 32.0715 53.8002 40.6761 57.5348 53.2676C57.6357 53.5704 57.7114 53.8984 57.7871 54.2265C57.2824 55.5638 53.1694 56.6236 48.148 56.6236C43.4545 56.6236 38.635 54.4788 38.635 54.4788C38.5845 54.3022 38.5088 54.1255 38.4331 53.9489C35.2789 45.5209 27.0781 40.3229 18.3978 41.2313C9.74275 42.1397 2.70264 48.9022 1.21387 57.8096C3.25777 43.0481 15.4455 32.0715 29.8538 32.0715Z" fill="url(#paint0_linear_110_185)"/>
<path d="M58.2438 69.1395L58.1429 69.518C54.5092 84.0777 40.8832 93.5907 26.374 91.6982C11.8648 89.8057 0.989258 77.1133 0.989258 62.0742V61.519C1.09019 70.9816 7.62564 79.0563 16.634 80.9235C25.6423 82.7908 34.701 77.8955 38.3599 69.2152C38.4608 68.9629 38.587 68.7106 38.6627 68.433C39.7982 67.2723 43.6589 66.3891 48.2766 66.3891C53.7522 66.3891 58.2186 67.6003 58.2186 69.1143L58.2438 69.1395Z" fill="url(#paint1_linear_110_185)"/>
<path d="M29.8538 32.0717C15.4707 32.0717 3.25777 43.0483 1.21387 57.8098C1.44097 56.5482 1.769 55.2865 2.2232 54.0753C5.65494 43.3258 15.6221 36.2605 26.5482 36.8661C37.4742 37.4717 46.6592 45.5464 48.9807 56.6239C53.6236 56.5229 57.3329 55.5136 57.7871 54.2267C57.7114 53.8986 57.6105 53.5958 57.5348 53.2678C53.8002 40.6511 42.5714 32.0465 29.8538 32.0465" fill="url(#paint2_linear_110_185)"/>
<path d="M49.3869 66.4396C47.1916 79.0563 36.0637 87.9385 23.6236 87.0048C11.1835 86.0712 1.44346 75.6246 1.06496 62.806C1.03972 62.4022 0.989258 61.9733 0.989258 61.5443V62.0994C0.989258 77.1386 11.8648 89.831 26.374 91.7235C40.8832 93.616 54.5092 84.103 58.1429 69.5433C58.1429 69.5433 58.2186 69.291 58.2438 69.1648C58.2438 67.7517 54.3578 66.6162 49.3869 66.4648V66.4396Z" fill="url(#paint3_linear_110_185)"/>
<path d="M19.2349 44.9408C12.0686 44.9408 5.73503 49.7856 3.64066 56.8762C3.59019 57.0528 3.53972 57.2294 3.48926 57.4061C3.76682 58.1631 6.11353 58.7687 8.93967 58.7687C10.7817 58.693 12.5985 58.2892 14.3144 57.5575C14.3396 57.4565 14.3901 57.3556 14.4153 57.2547C16.2069 52.5108 20.8246 49.5837 25.7199 50.0884C30.6151 50.593 34.5768 54.4033 35.4095 59.4247C34.2487 51.0977 27.3853 44.9408 19.2601 44.9155" fill="url(#paint4_linear_110_185)"/>
<path d="M3.23535 65.6069C3.23535 65.6069 3.28582 65.8087 3.28582 65.834C5.38019 74.0096 13.0007 79.3338 21.1006 78.274C29.2005 77.2142 35.307 70.0984 35.3827 61.6452V61.3424C35.3322 66.6919 31.6481 71.2591 26.6015 72.3189C21.5296 73.3787 16.4576 70.6031 14.4137 65.6826C14.3633 65.5312 14.2876 65.405 14.2371 65.2536C13.6063 64.5975 11.4362 64.0928 8.83716 64.0928C5.75869 64.0928 3.26059 64.7994 3.26059 65.6321L3.23535 65.6069Z" fill="url(#paint5_linear_110_185)"/>
<path d="M19.2349 44.9408C27.36 44.9408 34.2235 51.123 35.3842 59.45C35.2581 58.7435 35.0814 58.0369 34.8291 57.3304C32.9114 51.2491 27.2843 47.2623 21.1022 47.5903C14.9452 47.9183 9.74714 52.5108 8.46023 58.7687C5.83596 58.693 3.74159 58.1379 3.48926 57.4313C3.53972 57.2547 3.59019 57.0781 3.64066 56.9014C5.73503 49.8108 12.0686 44.9408 19.2349 44.9408Z" fill="url(#paint6_linear_110_185)"/>
<path d="M8.20648 64.0676C8.30742 64.5722 8.40835 65.1022 8.55975 65.6068C10.427 72.3189 16.7354 76.6338 23.4474 75.7254C30.1343 74.8422 35.2062 69.0133 35.3576 62.0237C35.3576 61.7966 35.3828 61.5442 35.3828 61.3171V61.6199C35.3324 70.0731 29.2259 77.189 21.126 78.2488C13.0261 79.3086 5.40558 73.9843 3.31121 65.8087L3.26074 65.6068C3.26074 64.7994 5.43081 64.1685 8.23172 64.0676H8.20648Z" fill="url(#paint7_linear_110_185)"/>
<path d="M103.866 64.3201C102.049 62.579 99.6269 61.5949 97.1035 61.5697C99.4755 61.5697 101.772 60.7874 103.664 59.3996C105.784 57.5576 106.97 54.8828 106.919 52.0819C106.919 54.9081 107.903 57.6333 109.771 59.7529C111.537 61.3678 113.833 62.251 116.205 62.2257C113.884 62.3014 111.638 63.0584 109.745 64.3958C107.575 66.2126 106.339 68.8874 106.389 71.7135C106.566 69.0135 105.658 66.364 103.866 64.3201Z" fill="#FABE00"/>
<path d="M132.429 96.5683C102.301 89.9823 83.2746 76.2049 85.4699 66.6919C88.725 52.4603 144.39 6.45975 89.482 0C89.482 0 107.246 26.4446 78.6821 55.0088L85.8736 21.2718L61.7505 32.2231L67.2514 32.3492L54.9375 100L71.4149 89.1244C72.4747 82.4123 73.2822 78.0722 73.8373 76.1292C86.025 92.4552 105.53 99.2682 132.404 96.543L132.429 96.5683Z" fill="url(#paint8_linear_110_185)"/>
<path d="M89.7321 0C89.7321 0 107.597 26.5708 78.6547 55.1855L78.4023 55.4378C86.7041 53.3182 95.4601 48.2968 103.055 40.7015C115.243 23.2904 123.873 4.01211 89.7321 0Z" fill="url(#paint9_linear_110_185)"/>
<path d="M216.632 35.6044H179.968L170.48 88.4179H208.532L207.372 75.8012H185.747L187.21 67.6003H203.132L208.406 55.0593H189.506L190.667 48.2211H221.729L214.437 88.4179H227.407L234.8 48.2211H242.572C244.44 48.2211 245.701 47.237 246.408 45.723L251.025 35.6044H216.658H216.632Z" fill="url(#paint10_linear_110_185)"/>
<path d="M143.66 58.4154L142.903 62.7051C143.181 61.1911 143.458 59.7528 143.66 58.4154Z" fill="url(#paint11_linear_110_185)"/>
<path d="M164.552 62.9827C162.861 61.6453 160.969 60.8378 158.95 60.3584C158.824 60.3332 158.698 60.2322 158.546 60.1818C158.647 60.1313 158.773 60.0304 158.874 60.0051C159.934 59.7276 161.019 59.5005 162.079 59.1724C164.577 58.365 166.697 57.0024 168.16 54.7818C169.775 52.309 170.482 49.4828 170.33 46.3791C170.154 42.0894 167.832 38.7586 163.87 36.9166C161.65 35.882 159.379 35.554 157.083 35.6297L153.323 35.6801C153.323 35.6801 153.146 35.6801 153.045 35.6801H142.296C138.814 35.7054 136.77 35.7306 133.288 35.7306C130.26 35.7306 129.831 36.0839 129.225 38.3296L119.99 87.8376C119.838 88.4937 120.091 88.6703 120.393 88.6955C120.519 88.6955 120.62 88.6955 120.721 88.6955C127.03 88.6955 128.291 88.6955 134.574 88.6955C138.788 88.6955 138.662 85.9451 138.889 84.4816L143.608 58.4154C143.684 57.936 143.785 57.4818 143.835 57.0024C143.911 56.0435 143.053 56.6996 142.75 56.9771C140.277 59.3491 139.217 60.7369 137.098 63.1089C135.836 64.5472 134.574 65.9855 133.338 67.4238C132.934 67.9032 132.177 67.4995 132.278 66.8939L134.625 54.2519C134.802 53.3183 135.256 52.4351 135.937 51.7791C136.265 51.4763 136.568 51.1735 137.098 50.6436C146.459 41.7866 154.509 36.8156 156.452 35.7306C156.452 35.8063 156.401 35.8568 156.401 35.9325L148.983 76.7601L147.418 86.4245C147.267 87.4086 147.948 88.3423 148.932 88.4937C149.058 88.4937 149.159 88.4937 149.286 88.4937C152.263 88.3675 156.174 88.0142 158.95 87.0806C163.492 85.5666 166.671 82.6647 168.11 77.9713C168.942 75.2461 169.346 72.4452 168.665 69.4677C168.11 66.8686 166.646 64.5472 164.527 62.907L164.552 62.9827Z" fill="url(#paint12_linear_110_185)"/>
<defs>
<linearGradient id="paint0_linear_110_185" x1="0.159112" y1="42.7251" x2="56.7323" y2="42.7251" gradientUnits="userSpaceOnUse">
<stop stop-color="#036EB8"/>
<stop offset="0.07" stop-color="#0569B4"/>
<stop offset="0.69" stop-color="#123B94"/>
<stop offset="1" stop-color="#172A88"/>
</linearGradient>
<linearGradient id="paint1_linear_110_185" x1="-0.0849271" y1="77.7429" x2="57.1696" y2="77.7429" gradientUnits="userSpaceOnUse">
<stop stop-color="#036EB8"/>
<stop offset="0.07" stop-color="#0569B4"/>
<stop offset="0.69" stop-color="#123B94"/>
<stop offset="1" stop-color="#172A88"/>
</linearGradient>
<linearGradient id="paint2_linear_110_185" x1="0.764713" y1="42.7253" x2="57.3379" y2="42.7253" gradientUnits="userSpaceOnUse">
<stop stop-color="#2EA7E0"/>
<stop offset="0.14" stop-color="#2C9EDA"/>
<stop offset="0.37" stop-color="#2887C9"/>
<stop offset="0.66" stop-color="#2160AE"/>
<stop offset="0.99" stop-color="#172C89"/>
<stop offset="1" stop-color="#172A88"/>
</linearGradient>
<linearGradient id="paint3_linear_110_185" x1="-0.0849271" y1="78.5756" x2="57.1696" y2="78.5756" gradientUnits="userSpaceOnUse">
<stop stop-color="#2EA7E0"/>
<stop offset="0.14" stop-color="#2C9EDA"/>
<stop offset="0.37" stop-color="#2887C9"/>
<stop offset="0.66" stop-color="#2160AE"/>
<stop offset="0.99" stop-color="#172C89"/>
<stop offset="1" stop-color="#172A88"/>
</linearGradient>
<linearGradient id="paint4_linear_110_185" x1="38.2588" y1="49.2494" x2="6.36385" y2="49.2494" gradientUnits="userSpaceOnUse">
<stop stop-color="#036EB8"/>
<stop offset="0.07" stop-color="#0569B4"/>
<stop offset="0.69" stop-color="#123B94"/>
<stop offset="1" stop-color="#172A88"/>
</linearGradient>
<linearGradient id="paint5_linear_110_185" x1="36.9464" y1="68.0406" x2="4.8243" y2="68.0406" gradientUnits="userSpaceOnUse">
<stop stop-color="#036EB8"/>
<stop offset="0.07" stop-color="#0569B4"/>
<stop offset="0.69" stop-color="#123B94"/>
<stop offset="1" stop-color="#172A88"/>
</linearGradient>
<linearGradient id="paint6_linear_110_185" x1="37.6532" y1="50.2398" x2="5.75824" y2="50.2398" gradientUnits="userSpaceOnUse">
<stop stop-color="#2EA7E0"/>
<stop offset="0.15" stop-color="#298CCD"/>
<stop offset="0.41" stop-color="#2162AF"/>
<stop offset="0.65" stop-color="#1C439A"/>
<stop offset="0.86" stop-color="#18318D"/>
<stop offset="1" stop-color="#172A88"/>
</linearGradient>
<linearGradient id="paint7_linear_110_185" x1="-60.7046" y1="68.0406" x2="-28.5825" y2="68.0406" gradientUnits="userSpaceOnUse">
<stop stop-color="#2EA7E0"/>
<stop offset="0.15" stop-color="#298CCD"/>
<stop offset="0.41" stop-color="#2162AF"/>
<stop offset="0.65" stop-color="#1C439A"/>
<stop offset="0.86" stop-color="#18318D"/>
<stop offset="1" stop-color="#172A88"/>
</linearGradient>
<linearGradient id="paint8_linear_110_185" x1="93.373" y1="96.1216" x2="113.669" y2="0.804028" gradientUnits="userSpaceOnUse">
<stop stop-color="#E60012"/>
<stop offset="0.8" stop-color="#F6AD64"/>
</linearGradient>
<linearGradient id="paint9_linear_110_185" x1="93.633" y1="55.6069" x2="110.475" y2="21.8749" gradientUnits="userSpaceOnUse">
<stop stop-color="#F6AD64"/>
<stop offset="0.8" stop-color="#E60012"/>
</linearGradient>
<linearGradient id="paint10_linear_110_185" x1="211.187" y1="36.8572" x2="211.187" y2="89.6707" gradientUnits="userSpaceOnUse">
<stop offset="0.4" stop-color="#0064C6"/>
<stop offset="1" stop-color="#00289E"/>
</linearGradient>
<linearGradient id="paint11_linear_110_185" x1="141.818" y1="57.671" x2="141.818" y2="62.9473" gradientUnits="userSpaceOnUse">
<stop offset="0.4" stop-color="#0064C6"/>
<stop offset="1" stop-color="#00289E"/>
</linearGradient>
<linearGradient id="paint12_linear_110_185" x1="143.687" y1="26.9766" x2="143.687" y2="92.2787" gradientUnits="userSpaceOnUse">
<stop offset="0.4" stop-color="#0064C6"/>
<stop offset="1" stop-color="#00289E"/>
</linearGradient>
</defs>
</svg>
